<svg xmlns="http://www.w3.org/2000/svg" viewBox="0 0 600 180" width="600" height="180">
  <defs>
    <linearGradient id="slideGrad" x1="0%" y1="0%" x2="100%" y2="100%">
      <stop offset="0%" style="stop-color:#4A90D9;stop-opacity:1" />
      <stop offset="100%" style="stop-color:#2C5F8A;stop-opacity:1" />
    </linearGradient>
  </defs>
  <!-- Slide icon -->
  <rect x="20" y="25" width="110" height="80" rx="8" fill="url(#slideGrad)" stroke="#1A3A5C" stroke-width="2"/>
  <rect x="30" y="35" width="90" height="55" rx="4" fill="#E8F0FE"/>
  <!-- Markdown # symbol -->
  <text x="50" y="72" font-family="monospace" font-size="36" font-weight="bold" fill="#4A90D9">#</text>
  <!-- Arrow -->
  <path d="M 145 65 L 175 65" stroke="#F5A623" stroke-width="4" stroke-linecap="round"/>
  <polygon points="175,55 195,65 175,75" fill="#F5A623"/>
  <!-- PDF slide icon -->
  <rect x="200" y="25" width="110" height="80" rx="8" fill="url(#slideGrad)" stroke="#1A3A5C" stroke-width="2"/>
  <rect x="210" y="35" width="90" height="55" rx="4" fill="#E8F0FE"/>
  <text x="225" y="60" font-family="sans-serif" font-size="11" fill="#4A90D9" font-weight="bold">Title</text>
  <line x1="220" y1="67" x2="280" y2="67" stroke="#7BB3E0" stroke-width="2" stroke-linecap="round"/>
  <line x1="220" y1="74" x2="270" y2="74" stroke="#B8D4F0" stroke-width="2" stroke-linecap="round"/>
  <line x1="220" y1="81" x2="275" y2="81" stroke="#B8D4F0" stroke-width="2" stroke-linecap="round"/>
  <!-- Title text -->
  <text x="325" y="58" font-family="system-ui, -apple-system, sans-serif" font-size="34" font-weight="700" fill="#1A3A5C">markdown-to-slides</text>
  <!-- Subtitle -->
  <text x="325" y="82" font-family="system-ui, -apple-system, sans-serif" font-size="16" fill="#5A7A9A">Markdown → Beautiful Beamer PDFs</text>
  <!-- Bottom tagline -->
  <text x="20" y="145" font-family="system-ui, -apple-system, sans-serif" font-size="14" fill="#8A9AB0">Write slides in Markdown. Let the robot handle the rest.</text>
  <!-- Small slide mascot wink -->
  <rect x="520" y="115" width="55" height="42" rx="5" fill="#4A90D9" stroke="#2C5F8A" stroke-width="2"/>
  <rect x="526" y="121" width="43" height="27" rx="3" fill="#E8F0FE"/>
  <line x1="531" y1="130" x2="555" y2="130" stroke="#7BB3E0" stroke-width="2" stroke-linecap="round"/>
  <line x1="531" y1="137" x2="550" y2="137" stroke="#B8D4F0" stroke-width="2" stroke-linecap="round"/>
  <circle cx="540" cy="165" r="2.5" fill="#2C5F8A"/>
  <line x1="550" y1="164" x2="558" y2="166" stroke="#2C5F8A" stroke-width="2" stroke-linecap="round"/>
</svg>
